<svg width="116" height="170" viewBox="0 0 116 170" fill="none" xmlns="http://www.w3.org/2000/svg">
<g filter="url(#filter0_i)">
<path d="M78.9074 90.6752C84.2583 134.255 141.864 154.543 98.2846 159.894C54.7053 165.245 15.0395 134.255 9.68861 90.6752C4.33774 47.0958 35.3281 7.43002 78.9074 2.07915C122.487 -3.27173 73.5565 47.0958 78.9074 90.6752Z" fill="#D7A81E" fill-opacity="0.74"/>
<path d="M78.9074 90.6752C84.2583 134.255 141.864 154.543 98.2846 159.894C54.7053 165.245 15.0395 134.255 9.68861 90.6752C4.33774 47.0958 35.3281 7.43002 78.9074 2.07915C122.487 -3.27173 73.5565 47.0958 78.9074 90.6752Z" fill="url(#paint0_linear)"/>
</g>
<defs>
<filter id="filter0_i" x="0" y="-2.28882e-05" width="119.218" height="173.583" filterUnits="userSpaceOnUse" color-interpolation-filters="sRGB">
<feFlood flood-opacity="0" result="BackgroundImageFix"/>
<feBlend mode="normal" in="SourceGraphic" in2="BackgroundImageFix" result="shape"/>
<feColorMatrix in="SourceAlpha" type="matrix" values="0 0 0 0 0 0 0 0 0 0 0 0 0 0 0 0 0 0 127 0" result="hardAlpha"/>
<feOffset dx="4" dy="4"/>
<feGaussianBlur stdDeviation="2"/>
<feComposite in2="hardAlpha" operator="arithmetic" k2="-1" k3="1"/>
<feColorMatrix type="matrix" values="0 0 0 0 0.843137 0 0 0 0 0.658824 0 0 0 0 0.117647 0 0 0 1 0"/>
<feBlend mode="normal" in2="shape" result="effect1_innerShadow"/>
</filter>
<linearGradient id="paint0_linear" x1="78.9074" y1="2.07915" x2="98.2846" y2="159.894" gradientUnits="userSpaceOnUse">
<stop stop-color="white" stop-opacity="0.24"/>
<stop offset="1" stop-color="#D7A81E"/>
</linearGradient>
</defs>
</svg>
